<svg width="40" height="41" viewBox="0 0 40 41" fill="none" xmlns="http://www.w3.org/2000/svg">
<path d="M8.3335 16.8715C8.3335 24.9578 15.4076 31.6449 18.5388 34.2087C18.9869 34.5756 19.2137 34.7613 19.548 34.8554C19.8083 34.9287 20.1915 34.9287 20.4518 34.8554C20.7868 34.7611 21.0119 34.5773 21.4618 34.209C24.5929 31.6452 31.6667 24.9586 31.6667 16.8722C31.6667 13.812 30.4376 10.8768 28.2497 8.71291C26.0618 6.54903 23.0945 5.33337 20.0003 5.33337C16.9061 5.33337 13.9385 6.54921 11.7506 8.71309C9.56266 10.877 8.3335 13.8113 8.3335 16.8715Z" stroke="#A10000" stroke-width="2.66667" stroke-linecap="round" stroke-linejoin="round"/>
<path d="M16.6668 15.3334C16.6668 17.1743 18.1592 18.6667 20.0002 18.6667C21.8411 18.6667 23.3335 17.1743 23.3335 15.3334C23.3335 13.4924 21.8411 12 20.0002 12C18.1592 12 16.6668 13.4924 16.6668 15.3334Z" stroke="#A10000" stroke-width="2.66667" stroke-linecap="round" stroke-linejoin="round"/>
</svg>
