<svg width="30" height="31" viewBox="0 0 30 31" fill="none" xmlns="http://www.w3.org/2000/svg">
<path d="M14.9998 3.54736C12.5893 3.54736 10.233 4.26215 8.22875 5.60133C6.22452 6.94051 4.66242 8.84393 3.73998 11.0709C2.81754 13.2979 2.57618 15.7484 3.04644 18.1125C3.5167 20.4767 4.67744 22.6483 6.3819 24.3527C8.08635 26.0572 10.258 27.2179 12.6221 27.6882C14.9862 28.1584 17.4367 27.9171 19.6637 26.9946C21.8907 26.0722 23.7941 24.5101 25.1333 22.5059C26.4725 20.5017 27.1873 18.1453 27.1873 15.7349C27.1838 12.5036 25.8987 9.40563 23.6139 7.12077C21.329 4.83591 18.231 3.55078 14.9998 3.54736ZM14.9998 26.0474C12.9601 26.0474 10.9663 25.4425 9.27044 24.3094C7.57456 23.1762 6.25278 21.5657 5.47225 19.6813C4.69172 17.7969 4.4875 15.7234 4.88541 13.723C5.28332 11.7226 6.26549 9.88505 7.70772 8.44283C9.14995 7.0006 10.9875 6.01843 12.9879 5.62052C14.9883 5.22261 17.0618 5.42683 18.9462 6.20736C20.8305 6.98788 22.4411 8.30966 23.5743 10.0055C24.7074 11.7014 25.3123 13.6952 25.3123 15.7349C25.3092 18.469 24.2217 21.0902 22.2884 23.0235C20.3551 24.9568 17.7339 26.0443 14.9998 26.0474ZM11.2498 15.7349C11.2498 16.5219 11.4974 17.289 11.9576 17.9275C12.4178 18.566 13.0672 19.0435 13.8139 19.2924C14.5606 19.5413 15.3666 19.549 16.1179 19.3143C16.8691 19.0796 17.5275 18.6145 17.9998 17.9849C18.1491 17.786 18.3713 17.6545 18.6176 17.6195C18.8638 17.5844 19.1139 17.6486 19.3128 17.7979C19.5118 17.9473 19.6432 18.1695 19.6783 18.4158C19.7133 18.662 19.6491 18.9121 19.4998 19.111C18.7912 20.0552 17.8036 20.7526 16.6768 21.1043C15.5499 21.4561 14.341 21.4444 13.2212 21.071C12.1013 20.6975 11.1274 19.9812 10.4372 19.0236C9.74702 18.0659 9.37564 16.9153 9.37564 15.7349C9.37564 14.5544 9.74702 13.4039 10.4372 12.4462C11.1274 11.4885 12.1013 10.7722 13.2212 10.3988C14.341 10.0253 15.5499 10.0136 16.6768 10.3654C17.8036 10.7172 18.7912 11.4145 19.4998 12.3587C19.5737 12.4572 19.6275 12.5693 19.6582 12.6886C19.6888 12.8079 19.6956 12.932 19.6783 13.0539C19.6609 13.1759 19.6197 13.2932 19.557 13.3992C19.4943 13.5052 19.4113 13.5978 19.3128 13.6718C19.2144 13.7457 19.1023 13.7995 18.983 13.8302C18.8637 13.8608 18.7395 13.8676 18.6176 13.8503C18.4957 13.8329 18.3783 13.7917 18.2723 13.729C18.1663 13.6663 18.0737 13.5834 17.9998 13.4849C17.5275 12.8552 16.8691 12.3901 16.1179 12.1554C15.3666 11.9208 14.5606 11.9284 13.8139 12.1773C13.0672 12.4262 12.4178 12.9037 11.9576 13.5422C11.4974 14.1807 11.2498 14.9478 11.2498 15.7349Z" fill="black"/>
</svg>
