<svg width="80" height="81" viewBox="0 0 80 81" fill="none" xmlns="http://www.w3.org/2000/svg">
<rect x="0.666667" y="1.40153" width="78.6667" height="78.6667" rx="39.3333" fill="#F9F9FB"/>
<rect x="0.666667" y="1.40153" width="78.6667" height="78.6667" rx="39.3333" stroke="#A10000" stroke-width="1.33333"/>
<path d="M53.8027 60.6619C56.6297 59.5696 58.8646 57.3347 59.9569 54.5077C60.4739 53.1686 60.8359 51.6407 60.9341 49.4057C60.9574 48.8822 60.9755 48.4427 60.9923 48.0019V33.0695C60.9806 32.758 60.9677 32.4336 60.9509 32.069C60.8527 29.8341 60.4907 28.2985 59.9737 26.967C59.4398 25.5542 58.6177 24.2887 57.5423 23.2378C56.4901 22.1688 55.2168 21.339 53.8195 20.8142C52.4803 20.2971 50.9525 19.9352 48.7175 19.8369C46.4658 19.7296 45.7509 19.7051 40.0414 19.7051C34.3319 19.7051 33.6158 19.7296 31.3731 19.8279C29.1381 19.9261 27.6025 20.2881 26.2711 20.8051C24.8582 21.339 23.5928 22.1611 22.5406 23.2378C21.4728 24.29 20.643 25.5633 20.1169 26.9593C19.5998 28.2985 19.2379 29.8263 19.1397 32.0613C19.0324 34.313 19.0078 35.0279 19.0078 40.7387C19.0078 46.4495 19.0324 47.1643 19.1306 49.407C19.2288 51.642 19.5908 53.1789 20.1091 54.509C20.643 55.9218 21.4728 57.1873 22.5406 58.2395C23.5928 59.3072 24.866 60.1384 26.2633 60.6632C27.6025 61.1802 29.1304 61.5422 31.3653 61.6404C33.608 61.74 34.3228 61.7645 40.0337 61.7645C45.7445 61.7645 46.458 61.74 48.702 61.6404C50.9369 61.5422 52.4713 61.179 53.8027 60.6619ZM40.0492 57.9836C34.4366 57.9836 33.7631 57.959 31.5527 57.8608C29.4988 57.7703 28.3897 57.4252 27.6503 57.1382C26.739 56.8008 25.9091 56.267 25.2344 55.569C24.5364 54.8865 24.0012 54.0656 23.6651 53.153C23.3782 52.4137 23.033 51.2955 22.9426 49.2506C22.8443 47.0325 22.8198 46.3668 22.8198 40.7542C22.8198 35.1416 22.8443 34.4682 22.9426 32.2591C23.033 30.2051 23.3782 29.096 23.6651 28.3566C24.0025 27.444 24.5364 26.6142 25.2434 25.9407C25.9246 25.2427 26.7468 24.7088 27.6581 24.3715C28.3974 24.0845 29.5156 23.7394 31.5605 23.6489C33.7786 23.5506 34.4443 23.5261 40.0556 23.5261C45.6669 23.5261 46.3417 23.5506 48.5521 23.6489C50.606 23.7394 51.7151 24.0845 52.4545 24.3715C53.3658 24.7088 54.1957 25.2427 54.8691 25.9407C55.5671 26.6232 56.1023 27.444 56.4384 28.3566C56.7253 29.096 57.0704 30.2128 57.1609 32.2591C57.2592 34.4772 57.2837 35.1429 57.2837 40.7542C57.2837 46.3655 57.2592 47.0234 57.1609 49.2416C57.0704 51.2955 56.7253 52.4046 56.4384 53.144C55.7313 54.9769 54.2771 56.4311 52.4454 57.1369C51.7061 57.4239 50.5892 57.769 48.543 57.8595C46.3249 57.9577 45.6605 57.9836 40.0492 57.9836Z" fill="#A10000"/>
<path d="M40.0418 29.9324C34.0764 29.9324 29.2368 34.772 29.2368 40.7375C29.2368 46.7029 34.0764 51.5425 40.0418 51.5425C46.0073 51.5425 50.8456 46.7029 50.8456 40.7375C50.8456 34.772 46.006 29.9324 40.0418 29.9324ZM40.0418 47.7448C36.1717 47.7448 33.0332 44.6063 33.0332 40.7362C33.0332 36.8661 36.1717 33.7276 40.0418 33.7276C43.912 33.7276 47.0505 36.8661 47.0505 40.7362C47.0505 44.6063 43.912 47.7448 40.0418 47.7448Z" fill="#A10000"/>
<path d="M53.7926 29.5052C53.7926 28.1118 52.6629 26.9833 51.2694 26.9833C49.876 26.9833 48.7475 28.1131 48.7475 29.5052C48.7475 30.8974 49.8772 32.0272 51.2694 32.0272C52.6616 32.0272 53.7926 30.8987 53.7926 29.5052Z" fill="#A10000"/>
</svg>
