<svg width="80" height="81" viewBox="0 0 80 81" fill="none" xmlns="http://www.w3.org/2000/svg">
<rect x="0.666667" y="1.40153" width="78.6667" height="78.6667" rx="39.3333" fill="#F9F9FB"/>
<rect x="0.666667" y="1.40153" width="78.6667" height="78.6667" rx="39.3333" stroke="#A10000" stroke-width="1.33333"/>
<path d="M30.5471 57.2979V34.9462H23.1243V57.2979H30.5471ZM26.8372 31.895C29.4252 31.895 31.0363 30.1786 31.0363 28.0337C30.9879 25.8398 29.4252 24.1714 26.8864 24.1714C24.346 24.1714 22.6868 25.8398 22.6868 28.0335C22.6868 30.1784 24.2973 31.8948 26.7886 31.8948L26.8372 31.895ZM34.6557 57.2979H42.0779V44.8171C42.0779 44.1499 42.1263 43.481 42.3224 43.0045C42.8587 41.6692 44.0801 40.2871 46.1311 40.2871C48.8163 40.2871 49.8911 42.3366 49.8911 45.3417V57.2979H57.3131V44.4821C57.3131 37.6169 53.6517 34.4222 48.7682 34.4222C44.7644 34.4222 43.006 36.662 42.029 38.1875H42.0785V34.947H34.6561C34.7529 37.0438 34.6557 57.2979 34.6557 57.2979Z" fill="#A10000"/>
</svg>
