<svg width="40" height="40" viewBox="0 0 40 40" fill="none" xmlns="http://www.w3.org/2000/svg">
<path d="M6.66667 10L16.8461 17.6872L16.8495 17.69C17.9797 18.5188 18.5452 18.9335 19.1646 19.0937C19.712 19.2353 20.2875 19.2353 20.835 19.0937C21.4549 18.9334 22.022 18.5175 23.1543 17.6872C23.1543 17.6872 29.6835 12.6766 33.3333 10M5 26.3337V13.667C5 11.8002 5 10.8661 5.36331 10.153C5.68289 9.52583 6.19245 9.01626 6.81966 8.69669C7.5327 8.33337 8.46682 8.33337 10.3337 8.33337H29.667C31.5338 8.33337 32.466 8.33337 33.179 8.69669C33.8062 9.01626 34.3175 9.52583 34.637 10.153C35 10.8654 35 11.7984 35 13.6616V26.3393C35 28.2025 35 29.1342 34.637 29.8465C34.3175 30.4737 33.8062 30.9842 33.179 31.3038C32.4667 31.6667 31.535 31.6667 29.6718 31.6667H10.3282C8.46499 31.6667 7.532 31.6667 6.81966 31.3038C6.19245 30.9842 5.68289 30.4737 5.36331 29.8465C5 29.1335 5 28.2005 5 26.3337Z" stroke="#A10000" stroke-width="2.66667" stroke-linecap="round" stroke-linejoin="round"/>
</svg>
