<svg width="22" height="21" viewBox="0 0 22 21" fill="none" xmlns="http://www.w3.org/2000/svg">
<path d="M19.889 15.0399V17.7066C19.89 17.9541 19.8393 18.1992 19.7401 18.426C19.641 18.6528 19.4955 18.8564 19.3131 19.0238C19.1307 19.1911 18.9153 19.3185 18.6808 19.3979C18.4463 19.4772 18.1978 19.5066 17.9512 19.4843C15.216 19.1871 12.5886 18.2525 10.2801 16.7555C8.13242 15.3907 6.31154 13.5698 4.9468 11.4221C3.44456 9.10319 2.50968 6.463 2.21791 3.71545C2.1957 3.46964 2.22491 3.22191 2.30369 2.98801C2.38246 2.75411 2.50908 2.53918 2.67548 2.35689C2.84187 2.17461 3.0444 2.02897 3.27017 1.92925C3.49593 1.82953 3.73999 1.77791 3.9868 1.77767H6.65346C7.08485 1.77343 7.50306 1.92619 7.83014 2.20748C8.15722 2.48877 8.37087 2.8794 8.43124 3.30656C8.54379 4.15996 8.75253 4.99788 9.05346 5.80434C9.17306 6.12249 9.19894 6.46826 9.12805 6.80068C9.05715 7.13309 8.89245 7.43822 8.65346 7.6799L7.52457 8.80878C8.78996 11.0342 10.6325 12.8767 12.8579 14.1421L13.9868 13.0132C14.2285 12.7742 14.5336 12.6095 14.866 12.5386C15.1984 12.4678 15.5442 12.4936 15.8624 12.6132C16.6688 12.9142 17.5067 13.1229 18.3601 13.2355C18.7919 13.2964 19.1863 13.5139 19.4682 13.8466C19.7501 14.1793 19.8998 14.604 19.889 15.0399Z" stroke="white" stroke-width="2.66667" stroke-linecap="round" stroke-linejoin="round"/>
</svg>
