<svg width="40" height="41" viewBox="0 0 40 41" fill="none" xmlns="http://www.w3.org/2000/svg">
<path d="M15.8374 7.76205C15.3312 6.49652 14.1055 5.66669 12.7425 5.66669H8.1579C6.41384 5.66669 5 7.08018 5 8.82424C5 23.6487 17.018 35.6667 31.8424 35.6667C33.5865 35.6667 35 34.2527 35 32.5087L35.0008 27.9233C35.0008 26.5603 34.1712 25.3348 32.9056 24.8286L28.5115 23.0716C27.3748 22.6169 26.0805 22.8215 25.1399 23.6053L24.0059 24.5511C22.6814 25.6548 20.7327 25.5671 19.5137 24.348L16.3204 21.1518C15.1013 19.9327 15.0112 17.9856 16.1149 16.6612L17.0605 15.5272C17.8444 14.5866 18.0508 13.292 17.5961 12.1552L15.8374 7.76205Z" stroke="#A10000" stroke-width="2.66667" stroke-linecap="round" stroke-linejoin="round"/>
</svg>
